<svg width="69" height="69" viewBox="0 0 69 69" fill="none" xmlns="http://www.w3.org/2000/svg">
<path d="M50.8413 42.7414C50.675 42.2111 50.4808 41.6924 50.257 41.1862C50.0332 40.68 49.7821 40.1903 49.5046 39.7147C49.2267 39.2403 48.923 38.7848 48.5936 38.3482C48.2642 37.9117 47.9119 37.4969 47.5367 37.104C47.1615 36.7112 46.7662 36.3431 46.3501 36.0011C45.9335 35.6573 45.5007 35.3418 45.0483 35.053C44.597 34.7648 44.1323 34.5049 43.6519 34.2753C43.172 34.0444 42.6798 33.8455 42.1775 33.6768L37.7935 19.6486L41.8454 18.2271C42.0123 18.1694 42.1664 18.0886 42.3111 17.9836C42.4553 17.8797 42.5838 17.7556 42.6946 17.6131C42.8064 17.4713 42.8977 17.3139 42.9666 17.1447C43.0373 16.9749 43.0834 16.798 43.1077 16.6139C43.1304 16.4303 43.1296 16.2462 43.1032 16.0631C43.0785 15.8795 43.0292 15.7035 42.957 15.5346C42.8848 15.3656 42.7925 15.2097 42.679 15.0691C42.5661 14.9273 42.4369 14.805 42.2915 14.7022L25.9074 3.13053C25.7893 3.04676 25.6639 2.97838 25.5324 2.92597C25.3997 2.87296 25.2631 2.83712 25.122 2.81667C24.982 2.79681 24.8414 2.79294 24.7008 2.80683C24.5602 2.82073 24.4212 2.8518 24.2873 2.89887C24.1533 2.94594 24.026 3.00842 23.9042 3.08572C23.7835 3.16362 23.6729 3.25575 23.5717 3.36034C23.4705 3.46493 23.381 3.5802 23.3044 3.70675C23.2277 3.83331 23.1655 3.96759 23.1183 4.10843L16.4855 23.7498C16.4266 23.9244 16.3916 24.1044 16.3812 24.2885C16.3702 24.4738 16.3827 24.6568 16.4197 24.8381C16.4567 25.0194 16.5177 25.1913 16.6005 25.3555C16.6839 25.5186 16.7857 25.6662 16.9081 25.7998C17.03 25.9315 17.1676 26.0449 17.3186 26.1359C17.4702 26.2286 17.6318 26.2971 17.8013 26.3401C17.9714 26.3849 18.1443 26.403 18.3183 26.3951C18.4935 26.3878 18.6637 26.3557 18.8295 26.2974L22.8808 24.877L27.2631 38.9058C27.0969 39.1506 26.938 39.4007 26.7868 39.658C26.6363 39.914 26.4924 40.1737 26.358 40.4399C26.2219 40.7066 26.0941 40.9764 25.9753 41.2509C25.8565 41.5254 25.746 41.8029 25.6434 42.0845C25.5402 42.3673 25.447 42.6526 25.3611 42.9402C25.2762 43.2284 25.1998 43.5196 25.1322 43.8125C25.0642 44.1067 25.005 44.4027 24.9553 44.6992C24.905 44.997 24.8643 45.2954 24.8319 45.5967C24.8 45.8969 24.7777 46.1977 24.7631 46.4996C24.7502 46.801 24.7452 47.1036 24.7501 47.4057C24.7534 47.7083 24.7673 48.0091 24.7902 48.3118C24.8124 48.6127 24.8436 48.9124 24.8849 49.2115C24.9244 49.5113 24.9746 49.8093 25.0331 50.1043C25.0911 50.4005 25.1586 50.6944 25.2355 50.9859C25.3114 51.2769 25.3967 51.5654 25.4893 51.8505C25.583 52.1361 25.6851 52.4188 25.7961 52.6974C25.906 52.9754 26.0254 53.251 26.1515 53.5214C26.2787 53.7923 26.4143 54.0573 26.5571 54.3188C26.7011 54.5809 26.8518 54.8376 27.0091 55.0891C27.1682 55.3399 27.3339 55.5854 27.5075 55.8263C27.6799 56.0665 27.8608 56.3008 28.0478 56.528C28.2359 56.7559 28.4296 56.9778 28.6294 57.1926C28.8309 57.4068 29.038 57.6152 29.2502 57.8158C29.4634 58.017 29.6834 58.21 29.9078 58.3965C30.1328 58.5817 30.3623 58.7605 30.5985 58.931C30.8336 59.1009 31.0737 59.2631 31.3189 59.4176C31.564 59.5721 31.8136 59.7172 32.0683 59.8546C32.3219 59.9913 32.5804 60.1204 32.8418 60.2407C33.1038 60.3597 33.368 60.471 33.6367 60.5729C33.9054 60.6748 34.1758 60.7672 34.4501 60.8513C34.7238 60.9336 34.9998 61.0083 35.2792 61.0729C35.5568 61.138 35.8368 61.1926 36.119 61.2394C36.4006 61.2844 36.6834 61.3212 36.9667 61.3479C37.2512 61.3752 37.5351 61.3918 37.8207 61.399C38.1046 61.4067 38.3891 61.4044 38.6742 61.392C38.9588 61.3808 39.2428 61.359 39.5268 61.3282C39.8097 61.2969 40.0926 61.2567 40.3733 61.2064C40.654 61.1561 40.9336 61.0963 41.2105 61.0277C41.4879 60.9578 41.7625 60.8791 42.0355 60.7921C42.3079 60.7033 42.5781 60.6073 42.8449 60.5008C43.1113 60.3954 43.3742 60.2793 43.6339 60.1555C43.8947 60.0323 44.1499 59.9003 44.4012 59.7587C44.6536 59.6178 44.9005 59.4679 45.1429 59.3097C45.3865 59.1522 45.6245 58.9857 45.8563 58.8116C46.0893 58.638 46.3167 58.4555 46.5386 58.2671C46.761 58.0775 46.9762 57.8796 47.1869 57.6764C47.3965 57.4726 47.6 57.261 47.7968 57.0429C47.9947 56.8255 48.1848 56.6009 48.3683 56.3697C48.5528 56.1392 48.729 55.9027 48.8986 55.6597C49.0681 55.4167 49.2304 55.1684 49.3843 54.9141C49.5393 54.6604 49.6855 54.4019 49.8243 54.1381C49.9632 53.8743 50.0943 53.6064 50.2165 53.3336C50.3397 53.0615 50.4541 52.7846 50.5601 52.5048C50.6666 52.2237 50.7632 51.9403 50.853 51.6533C50.9417 51.3657 51.0226 51.0769 51.0941 50.7845C51.1661 50.4909 51.2286 50.1967 51.2827 49.8996C51.3352 49.603 51.3804 49.3041 51.4162 49.0045C51.4519 48.7049 51.4799 48.4042 51.4967 48.1034C51.5151 47.802 51.523 47.4994 51.5236 47.1974C51.5231 46.8948 51.5136 46.5933 51.4947 46.2913C51.4758 45.9892 51.4491 45.6889 51.4123 45.3892C51.3755 45.0895 51.3298 44.7909 51.2746 44.4947C51.22 44.1973 51.157 43.9028 51.0845 43.6107C51.012 43.3186 50.9311 43.0294 50.8413 42.7414ZM32.2288 53.557C32.02 53.6294 31.808 53.6378 31.5939 53.5828C31.3803 53.5267 31.197 53.4155 31.0428 53.2488C30.8892 53.0808 30.7886 52.8834 30.7417 52.6553C30.6936 52.4266 30.7074 52.2028 30.7809 51.9827L34.8761 39.8498C34.9064 39.7622 34.945 39.6806 34.9915 39.6031C35.0396 39.525 35.0944 39.4535 35.1565 39.3903C35.218 39.3253 35.2867 39.2686 35.3621 39.2214C35.4364 39.1736 35.5151 39.1341 35.5972 39.1053C35.6804 39.077 35.7652 39.0571 35.8517 39.0484C35.9393 39.0403 36.0252 39.0417 36.1116 39.0537C36.1975 39.0669 36.2823 39.0884 36.3642 39.1218C36.4456 39.1534 36.5231 39.1962 36.5955 39.2467L46.7153 46.3954C46.8986 46.5243 47.0355 46.6951 47.1271 46.9085C47.2181 47.1201 47.2495 47.3429 47.2206 47.575C47.1911 47.8052 47.1076 48.0111 46.9666 48.1908C46.8268 48.3711 46.6519 48.4987 46.4437 48.5728L32.2288 53.557Z" fill="#2DB15C"/>
<path d="M32.2287 53.557C32.0199 53.6294 31.8079 53.6378 31.5938 53.5828C31.3803 53.5267 31.197 53.4155 31.0428 53.2488C30.8891 53.0808 30.7886 52.8834 30.7416 52.6553C30.6935 52.4266 30.7074 52.2028 30.7809 51.9827L34.876 39.8497C34.936 39.6728 35.029 39.5179 35.1553 39.3867C35.2816 39.2555 35.4302 39.1599 35.5988 39.1017L24.2878 2.90062C24.0148 2.99357 23.7757 3.14758 23.5705 3.35971C23.3654 3.57185 23.2137 3.82141 23.1183 4.1084L16.4854 23.7498C16.4265 23.9244 16.3916 24.1043 16.3811 24.2885C16.3702 24.4738 16.3826 24.6568 16.4196 24.8381C16.4567 25.0194 16.5177 25.1913 16.6005 25.3555C16.6838 25.5185 16.7856 25.6662 16.9081 25.7997C17.03 25.9315 17.1675 26.0449 17.3185 26.1358C17.4701 26.2286 17.6317 26.297 17.8013 26.3401C17.9713 26.3849 18.1442 26.403 18.3183 26.3951C18.4935 26.3878 18.6637 26.3556 18.8295 26.2974L22.8808 24.877L27.263 38.9057C26.8512 39.51 26.4879 40.1446 26.1703 40.8095C25.8532 41.4762 25.5868 42.1625 25.3717 42.8733C25.1572 43.5828 24.9956 44.3073 24.8882 45.0443C24.7824 45.7807 24.7295 46.5232 24.7325 47.2688C24.7355 48.0144 24.7937 48.7553 24.9071 49.4917C25.0206 50.228 25.1865 50.9508 25.4071 51.6584C25.6282 52.3678 25.8997 53.0535 26.2219 53.7175C26.5447 54.3803 26.9138 55.013 27.3299 55.6144C27.746 56.2158 28.2051 56.7795 28.705 57.3041C29.2049 57.8287 29.7412 58.309 30.3127 58.7444C30.883 59.1791 31.4836 59.5648 32.1122 59.9002C32.7408 60.2357 33.3902 60.5155 34.0603 60.7426C34.7309 60.9685 35.4129 61.1383 36.1083 61.25C36.8043 61.3635 37.5037 61.4166 38.2067 61.4123C38.9096 61.4079 39.6081 61.345 40.3013 61.2228C40.9955 61.1012 41.6759 60.9233 42.343 60.6879L39.3359 51.064L32.2287 53.557Z" fill="#169444"/>
<mask id="mask0_2030_61" style="mask-type:luminance" maskUnits="userSpaceOnUse" x="1" y="0" width="66" height="69">
<path d="M66.2605 23.489L45.353 68.268L1.94916 44.779L22.8566 -2.79992e-05L66.2605 23.489Z" fill="white"/>
</mask>
<g mask="url(#mask0_2030_61)">
<path d="M50.4985 53.7669C50.1158 54.5896 49.6595 55.3608 49.1284 56.0827C48.5974 56.8047 48.0015 57.4624 47.3419 58.0563C46.6823 58.6503 45.9717 59.1685 45.2101 59.6108C44.4474 60.0526 43.6482 60.4118 42.8136 60.6861C42.189 60.8929 41.5518 61.0506 40.9011 61.1586C40.2515 61.2671 39.595 61.3238 38.9339 61.3297C38.2716 61.335 37.612 61.2892 36.9528 61.1939C36.2941 61.0975 35.6449 60.9506 35.0028 60.755C34.3623 60.5589 33.7358 60.3148 33.126 60.0228C32.5151 59.7301 31.9271 59.3944 31.3609 59.012C30.7953 58.6314 30.2577 58.209 29.7481 57.7478C29.2391 57.2853 28.7638 56.7871 28.3222 56.2531C27.8801 55.7202 27.4779 55.1563 27.1134 54.5633C26.749 53.9702 26.4262 53.3544 26.1475 52.7142C25.8682 52.0752 25.6352 51.4188 25.4468 50.7458C25.2579 50.0738 25.1188 49.3924 25.0249 48.7018C24.9328 48.0107 24.8894 47.3182 24.8931 46.6249C24.8974 45.9304 24.9511 45.2423 25.0526 44.561C25.1546 43.8786 25.3039 43.21 25.5011 42.5542C25.6982 41.8984 25.9394 41.2636 26.2275 40.6497C26.5361 39.9856 26.8946 39.3542 27.3012 38.7533L22.6701 24.725L18.6189 26.0632C18.4531 26.1181 18.2825 26.147 18.1064 26.151C17.9315 26.1557 17.7574 26.1345 17.5856 26.0868C17.4145 26.041 17.2508 25.9699 17.097 25.875C16.9437 25.7818 16.8035 25.6665 16.6788 25.5333C16.5535 25.3983 16.4488 25.2496 16.3624 25.086C16.2765 24.9212 16.2124 24.7492 16.1723 24.5683C16.1322 24.3873 16.1167 24.2051 16.1248 24.0211C16.1323 23.8382 16.1646 23.6599 16.221 23.4874L22.5767 4.07998C22.601 4.0069 22.6297 3.93627 22.6624 3.8663L22.6662 3.85814C22.7233 3.7357 22.7929 3.61999 22.8739 3.51334C22.9559 3.40731 23.0477 3.31088 23.1486 3.22524C23.2511 3.13905 23.36 3.06652 23.4775 3.00594C23.595 2.94536 23.7177 2.89783 23.8451 2.86453C23.9725 2.83122 24.1029 2.8127 24.2352 2.80833C24.367 2.80514 24.4995 2.8155 24.631 2.83996C24.7621 2.86559 24.8894 2.90527 25.0146 2.95845C25.1382 3.01218 25.2563 3.07757 25.3679 3.15695L42.0263 14.9634C42.122 15.0313 42.2123 15.1079 42.2959 15.1926C42.3796 15.2773 42.4554 15.3695 42.523 15.4674C42.5917 15.5659 42.6509 15.6695 42.7012 15.78C42.751 15.8888 42.7918 16.0014 42.8226 16.1174C42.8546 16.234 42.8742 16.3527 42.8848 16.4724C42.8955 16.5921 42.8955 16.7104 42.8854 16.8291C42.8753 16.9478 42.8545 17.0651 42.8241 17.1787C42.7932 17.2934 42.7532 17.4033 42.7025 17.5088C42.5953 17.7385 42.4494 17.9356 42.2633 18.1007C42.0783 18.2665 41.868 18.3864 41.6341 18.4599L37.5824 19.7992L42.2152 33.827C42.4479 33.9077 42.6785 33.9959 42.9064 34.0901C43.1349 34.183 43.3612 34.2836 43.5848 34.39C43.8078 34.4975 44.0298 34.6104 44.2474 34.7296C44.4655 34.8476 44.6816 34.9733 44.8937 35.1042C45.1059 35.235 45.3142 35.3711 45.5192 35.5142C45.7259 35.6568 45.9271 35.8051 46.1255 35.9592C46.3245 36.1122 46.518 36.271 46.7088 36.4355C46.8995 36.6001 47.0847 36.7705 47.2678 36.9455C47.4497 37.1199 47.6266 37.2989 47.7997 37.4831C47.9739 37.668 48.142 37.8568 48.3052 38.0503C48.4694 38.2443 48.6275 38.4424 48.7824 38.6445C48.9355 38.8471 49.0842 39.0532 49.2268 39.2633C49.3706 39.474 49.5087 39.6876 49.6419 39.9057C49.774 40.1233 49.9016 40.3442 50.0231 40.5692C50.1434 40.7936 50.2594 41.0214 50.3697 41.252C50.4801 41.4826 50.5832 41.7166 50.6813 41.9523C50.7794 42.188 50.8719 42.4265 50.9577 42.6672C51.043 42.9091 51.1238 43.1515 51.1974 43.3972C51.2703 43.6412 51.3378 43.888 51.3985 44.1371C51.4597 44.385 51.5143 44.635 51.5627 44.8862C51.6116 45.1362 51.6527 45.3877 51.6877 45.6404C51.7238 45.8936 51.7526 46.1473 51.7741 46.4014C51.7967 46.6561 51.8115 46.9095 51.8213 47.1646C51.8304 47.4179 51.8334 47.6722 51.8292 47.927C51.8254 48.1806 51.8144 48.4347 51.7972 48.6868C51.7806 48.9407 51.7567 49.1922 51.7271 49.4435C51.6964 49.6942 51.6601 49.9448 51.6176 50.1935C51.574 50.4416 51.5253 50.6884 51.4688 50.9338C51.4133 51.1799 51.3511 51.4223 51.2822 51.664C51.2132 51.9057 51.1386 52.1443 51.0578 52.381C50.977 52.6178 50.8894 52.8508 50.7968 53.0826C50.703 53.3138 50.6036 53.5419 50.4985 53.7669ZM35.6866 39.1005C35.6464 39.1138 35.6068 39.1289 35.5684 39.1476L35.55 39.1566C35.3155 39.2707 35.1408 39.4508 35.027 39.6945L34.9649 39.8274L31.0416 51.8147C31.0093 51.9111 30.9899 52.0102 30.9835 52.1119C30.9754 52.2141 30.9802 52.3161 30.9979 52.4177C31.0156 52.5193 31.0445 52.6182 31.085 52.7132C31.1262 52.807 31.1768 52.8957 31.2391 52.9776C31.3013 53.0595 31.3719 53.1328 31.4497 53.1968C31.5291 53.2602 31.6134 53.3131 31.7043 53.355C31.7951 53.3969 31.8892 53.4259 31.9876 53.4426C32.0843 53.4599 32.1814 53.4642 32.2788 53.4556C32.3617 53.4479 32.4417 53.4313 32.521 53.407L37.2672 51.8446L46.7434 48.7155C47.0449 48.6186 47.2642 48.4218 47.4036 48.1262C47.4652 47.9945 47.5036 47.8546 47.5161 47.7065C47.5297 47.5591 47.5164 47.4116 47.4779 47.2666C47.4394 47.1217 47.377 46.9885 47.2928 46.8656C47.207 46.7432 47.1051 46.6398 46.985 46.5544L36.6944 39.2618C36.5449 39.1545 36.3824 39.0871 36.2042 39.0593C36.0277 39.031 35.8546 39.0439 35.6866 39.1005ZM51.7881 54.4648C51.9586 54.0999 52.1149 53.7287 52.2576 53.3502C52.3992 52.9711 52.5262 52.587 52.639 52.1967C52.7519 51.8064 52.8489 51.4105 52.9319 51.0114C53.0138 50.6116 53.0816 50.2086 53.1325 49.8024C53.1846 49.3967 53.2209 48.9884 53.2415 48.5774C53.2632 48.167 53.2681 47.7563 53.2584 47.3434C53.2481 46.9318 53.2221 46.5204 53.1805 46.1093C53.1393 45.6971 53.0837 45.2886 53.0107 44.881C52.9388 44.474 52.8517 44.069 52.7502 43.6679C52.6475 43.2662 52.5298 42.8694 52.3986 42.4771C52.2664 42.0841 52.1202 41.6968 51.9589 41.3144C51.7987 40.9327 51.6241 40.5577 51.435 40.1895C51.2458 39.8213 51.0445 39.4611 50.8292 39.1095C50.6134 38.756 50.3853 38.4135 50.1451 38.079C49.9048 37.7445 49.6518 37.4191 49.3877 37.1053C49.1225 36.7909 48.848 36.4874 48.5612 36.1949C47.0381 34.6506 45.2954 33.4767 43.3329 32.6732L39.4077 20.7871L42.1041 19.9004C42.5178 19.7664 42.8878 19.5532 43.2151 19.2615C43.5413 18.9691 43.7994 18.6195 43.9889 18.2137C44.076 18.0271 44.1462 17.8343 44.1995 17.6323C44.2522 17.4315 44.288 17.2274 44.3052 17.0176C44.3219 16.809 44.3218 16.6001 44.3026 16.3895C44.2834 16.179 44.2468 15.9723 44.1923 15.7675C44.1373 15.5639 44.0661 15.3647 43.9782 15.1739C43.8896 14.9814 43.7856 14.798 43.6665 14.6255C43.5468 14.4512 43.4139 14.2901 43.2671 14.1406C43.1209 13.9928 42.9631 13.8577 42.7942 13.7372L26.1369 1.92542C25.9403 1.78544 25.7329 1.66879 25.5134 1.57484C25.2945 1.47973 25.0691 1.41038 24.8375 1.3668C24.6063 1.32206 24.3744 1.3032 24.1407 1.30961C23.9075 1.3178 23.6786 1.35021 23.4533 1.408C23.2276 1.46696 23.0123 1.54909 22.8051 1.6561C22.5992 1.76373 22.4058 1.89281 22.2262 2.04394C22.0472 2.19391 21.8858 2.36366 21.7426 2.55203C21.5983 2.73979 21.4767 2.94273 21.3743 3.159L21.3683 3.17183C21.3128 3.29371 21.263 3.41865 21.221 3.54788L14.8653 22.9553C14.7658 23.2594 14.7086 23.5731 14.6935 23.8965C14.6795 24.2205 14.7076 24.5425 14.7783 24.8612C14.8489 25.1799 14.9603 25.4841 15.113 25.7727C15.264 26.0618 15.45 26.3246 15.6703 26.5622C15.8901 26.798 16.1369 27.0002 16.4079 27.1658C16.68 27.3321 16.9672 27.4568 17.2701 27.5389C17.573 27.621 17.878 27.6591 18.1875 27.6512C18.4964 27.6446 18.7986 27.5919 19.09 27.4954L21.7924 26.6047L25.7171 38.4921C25.4321 38.963 25.1725 39.4492 24.9367 39.9511C24.7311 40.4037 24.5475 40.8667 24.3864 41.339C24.2237 41.8118 24.0852 42.2934 23.9676 42.7819C23.8511 43.271 23.7576 43.7653 23.6878 44.2665C23.6175 44.766 23.5707 45.2694 23.5475 45.7769C23.5238 46.2826 23.5248 46.79 23.5493 47.2985C23.5722 47.8075 23.6202 48.3141 23.6913 48.8199C23.7629 49.3246 23.8574 49.8257 23.9749 50.3231C24.0923 50.8205 24.2327 51.3113 24.3943 51.7961C24.5576 52.2803 24.7426 52.7573 24.9483 53.2236C25.1545 53.6916 25.383 54.1483 25.631 54.5936C25.8784 55.0401 26.147 55.4717 26.435 55.892C26.7219 56.3116 27.0282 56.7169 27.3522 57.1056C27.6768 57.4959 28.018 57.869 28.3757 58.2248C28.7335 58.5805 29.1056 58.9177 29.4942 59.2376C29.8818 59.5569 30.2831 59.8558 30.6981 60.1345C31.1114 60.4137 31.5379 60.6708 31.9742 60.9069C32.4116 61.1436 32.8582 61.3575 33.3129 61.5481C33.7687 61.7393 34.231 61.9076 34.7002 62.052C35.1694 62.1964 35.6439 62.3173 36.1231 62.413C36.6022 62.5087 37.0839 62.581 37.5674 62.6279C38.051 62.6749 38.5358 62.6977 39.0198 62.6952C39.5038 62.6928 39.9863 62.6661 40.4667 62.6135C40.9466 62.5621 41.4228 62.4853 41.8947 62.3843C42.3667 62.2833 42.831 62.1591 43.2888 62.0096C43.7477 61.8606 44.1962 61.6885 44.637 61.4932C45.0785 61.2968 45.5072 61.079 45.9267 60.8385C46.3462 60.5981 46.7514 60.3368 47.1445 60.0529C47.5381 59.7708 47.9158 59.4683 48.2792 59.1449C48.6437 58.8222 48.9899 58.4808 49.3203 58.122C49.6512 57.7621 49.9639 57.3865 50.259 56.994C50.5529 56.6009 50.8282 56.1934 51.0836 55.7707C51.339 55.348 51.5746 54.9131 51.7881 54.4648ZM36.2128 40.7087L45.7409 47.4601L36.7901 50.4164L32.5838 51.8108L36.215 40.704L36.2128 40.7087Z" fill="url(#paint0_linear_2030_61)"/>
</g>
<defs>
<linearGradient id="paint0_linear_2030_61" x1="44.5066" y1="11.8376" x2="21.1281" y2="55.0373" gradientUnits="userSpaceOnUse">
<stop stop-color="white"/>
</linearGradient>
</defs>
</svg>
