<svg width="63" height="62" viewBox="0 0 63 62" fill="none" xmlns="http://www.w3.org/2000/svg">
<path d="M25.7329 14.2223L25.7323 14.2219C25.7064 14.2053 25.6959 14.1922 25.6876 14.1784C25.6771 14.1608 25.6696 14.1417 25.6546 14.1034C25.6518 14.0964 25.6488 14.0887 25.6454 14.0802L25.6423 14.0721C24.0873 10.0663 22.5324 6.06057 20.9775 2.05383C20.9335 1.94013 20.935 1.8863 20.9437 1.86156C20.9489 1.84657 20.9677 1.81154 21.073 1.7759L21.0731 1.77586C23.8384 0.836943 26.6812 0.298092 29.6029 0.159242L29.603 0.159238C29.6269 0.158084 29.6497 0.156807 29.6715 0.155579C29.7195 0.15288 29.7632 0.150421 29.8068 0.150046C29.8692 0.149508 29.915 0.153827 29.9482 0.163467C29.9785 0.172263 29.991 0.183204 29.9984 0.193794C30.0071 0.206245 30.0214 0.236665 30.0214 0.306V0.306034C30.0224 4.64656 30.0224 8.98709 30.0224 13.3286C30.0224 13.3976 30.0039 13.4297 29.9885 13.4456C29.9723 13.4623 29.9395 13.4816 29.8722 13.4863L29.8721 13.4863C28.4881 13.5837 27.1431 13.8336 25.8382 14.237L25.8382 14.237C25.7989 14.2492 25.768 14.245 25.7329 14.2223Z" fill="#183668" stroke="url(#paint0_linear_2013_314)" stroke-width="0.3"/>
<path d="M32.1945 13.4689L32.1951 13.4694C32.2069 13.4779 32.2208 13.4831 32.2371 13.4842C32.2371 13.4842 32.2372 13.4842 32.2373 13.4842L32.2273 13.6339C33.5688 13.7217 34.8937 13.9646 36.202 14.3617L32.1945 13.4689ZM32.1945 13.4689C32.1526 13.439 32.1399 13.4202 32.1336 13.4066C32.1261 13.3903 32.1192 13.3628 32.1188 13.3007V13.2758V13.2503V13.2249V13.1994V13.174V13.1485V13.1231V13.0976V13.0722V13.0467V13.0213V12.9958V12.9704V12.9449V12.9195V12.894V12.8686V12.8431V12.8177V12.7922V12.7668V12.7413V12.7159V12.6904V12.665V12.6395V12.6141V12.5886V12.5632V12.5377V12.5123V12.4868V12.4614V12.4359V12.4105V12.385V12.3596V12.3341V12.3087V12.2832V12.2578V12.2323V12.2069V12.1814V12.156V12.1305V12.1051V12.0796V12.0541V12.0287V12.0032V11.9778V11.9523V11.9269V11.9014V11.876V11.8505V11.8251V11.7996V11.7742V11.7487V11.7233V11.6978V11.6724V11.6469V11.6215V11.596V11.5706V11.5451V11.5197V11.4942V11.4688V11.4433V11.4179V11.3924V11.367V11.3415V11.3161V11.2906V11.2652V11.2397V11.2143V11.1888V11.1634V11.1379V11.1124V11.087V11.0615V11.0361V11.0106V10.9852V10.9597V10.9343V10.9088V10.8834V10.8579V10.8325V10.807V10.7816V10.7561V10.7307V10.7052V10.6798V10.6543V10.6289V10.6034V10.578V10.5525V10.5271V10.5016V10.4762V10.4507V10.4253V10.3998V10.3743V10.3489V10.3234V10.298V10.2725V10.2471V10.2216V10.1962V10.1707V10.1453V10.1198V10.0944V10.0689V10.0435V10.018V9.99257V9.96711V9.94166V9.91621V9.89076V9.8653V9.83985V9.8144V9.78895V9.76349V9.73804V9.71259V9.68714V9.66169V9.63623V9.61078V9.58533V9.55988V9.53442V9.50897V9.48352V9.45807V9.43261V9.40716V9.38171V9.35626V9.3308V9.30535V9.2799V9.25445V9.229V9.20354V9.17809V9.15264V9.12718V9.10173V9.07628V9.05083V9.02537V8.99992V8.97447V8.94902V8.92356V8.89811V8.87266V8.84721V8.82175V8.7963V8.77085V8.7454V8.71994V8.69449V8.66904V8.64359V8.61813V8.59268V8.56723V8.54177V8.51632V8.49087V8.46542V8.43996V8.41451V8.38906V8.36361V8.33815V8.3127V8.28725V8.2618V8.23634V8.21089V8.18544V8.15998V8.13453V8.10908V8.08363V8.05817V8.03272V8.00727V7.98182V7.95636V7.93091V7.90546V7.88V7.85455V7.8291V7.80365V7.77819V7.75274V7.72729V7.70183V7.67638V7.65093V7.62548V7.60002V7.57457V7.54912V7.52366V7.49821V7.47276V7.44731V7.42185V7.3964V7.37095V7.34549V7.32004V7.29459V7.26914V7.24368V7.21823V7.19278V7.16732V7.14187V7.11642V7.09097V7.06551V7.04006V7.01461V6.98915V6.9637V6.93825V6.9128V6.88734V6.86189V6.83644V6.81098V6.78553V6.76008V6.73463V6.70917V6.68372V6.65827V6.63281V6.60736V6.58191V6.55646V6.531V6.50555V6.4801V6.45464V6.42919V6.40374V6.37829V6.35283V6.32738V6.30193V6.27647V6.25102V6.22557V6.20012V6.17466V6.14921V6.12376V6.0983V6.07285V6.0474V6.02195V5.99649V5.97104V5.94559V5.92013V5.89468V5.86923V5.84378V5.81832V5.79287V5.76742V5.74196V5.71651V5.69106V5.66561V5.64015V5.6147V5.58925V5.56379V5.53834V5.51289V5.48744V5.46198V5.43653V5.41108V5.38563V5.36017V5.33472V5.30927V5.28381V5.25836V5.23291V5.20746V5.182V5.15655V5.1311V5.10565V5.08019V5.05474V5.02929V5.00383V4.97838V4.95293V4.92748V4.90202V4.87657V4.85112V4.82567V4.80021V4.77476V4.74931V4.72386V4.6984V4.67295V4.6475V4.62205V4.59659V4.57114V4.54569V4.52024V4.49478V4.46933V4.44388V4.41843V4.39297V4.36752V4.34207V4.31662V4.29116V4.26571V4.24026V4.21481V4.18935V4.1639V4.13845V4.113V4.08754V4.06209V4.03664V4.01119V3.98573V3.96028V3.93483V3.90938V3.88392V3.85847V3.83302V3.80757V3.78212V3.75666V3.73121V3.70576V3.68031V3.65485V3.6294V3.60395V3.5785V3.55305V3.52759V3.50214V3.47669V3.45124V3.42578V3.40033V3.37488V3.34943V3.32398V3.29852V3.27307V3.24762V3.22217V3.19672V3.17126V3.14581V3.12036V3.09491V3.06946V3.044V3.01855V2.9931V2.96765V2.9422V2.91674V2.89129V2.86584V2.84039V2.81494V2.78949V2.76403V2.73858V2.71313V2.68768V2.66223V2.63678V2.61132V2.58587V2.56042V2.53497V2.50952V2.48406V2.45861V2.43316V2.40771V2.38226V2.35681V2.33136V2.3059V2.28045V2.255V2.22955V2.2041V2.17865V2.15319V2.12774V2.10229V2.07684V2.05139V2.02594V2.00049V1.97504V1.94958V1.92413V1.89868V1.87323V1.84778V1.82233V1.79688V1.77143V1.74597V1.72052V1.69507V1.66962V1.64417V1.61872V1.59327V1.56782V1.54237V1.51691V1.49146V1.46601V1.44056V1.41511V1.38966V1.36421V1.33876V1.31331V1.28786V1.26241V1.23695V1.2115V1.18605V1.1606V1.13515V1.1097V1.08425V1.0588V1.03335V1.0079V0.982447V0.956997V0.931546V0.906095V0.880645V0.855194V0.829744V0.804293V0.778843V0.753392V0.727942V0.702492V0.677041V0.651591V0.62614V0.60069V0.57524V0.54979V0.524339V0.498889V0.473439V0.447989V0.422539V0.397088V0.371638V0.346188V0.320738V0.295288V0.269838C32.1188 0.226269 32.1293 0.208607 32.1349 0.201473C32.1413 0.193163 32.1543 0.18229 32.1831 0.172787C32.2485 0.151237 32.3409 0.152591 32.447 0.157248L32.1945 13.4689Z" fill="#EB1C2D" stroke="url(#paint1_linear_2013_314)" stroke-width="0.3"/>
<path d="M19.9625 17.2407L19.9625 17.2408C19.9658 17.2445 19.9699 17.2481 19.9775 17.2525C20.0219 17.2767 20.0558 17.2824 20.0818 17.2806C20.1076 17.2787 20.1382 17.2684 20.1749 17.2394L20.268 17.357L20.1746 17.2396C21.2452 16.3884 22.3985 15.6721 23.6362 15.0886L23.6363 15.0886C23.6986 15.0592 23.7156 15.0293 23.7219 15.0075C23.73 14.9792 23.7294 14.9304 23.699 14.8525L23.6989 14.8522C22.1379 10.8289 20.5758 6.80462 19.0138 2.78034L19.0023 2.75062C18.9763 2.68378 18.9443 2.65584 18.9204 2.64509C18.8981 2.6351 18.8579 2.6286 18.7889 2.6584L18.7294 2.52071M19.9625 17.2407L11.2197 7.32658C13.517 5.407 16.0403 3.85067 18.7891 2.65832L18.7294 2.52071M19.9625 17.2407L19.9611 17.2392M19.9625 17.2407L19.9611 17.2392M18.7294 2.52071C15.9674 3.71877 13.4318 5.2827 11.1235 7.2115L19.1421 2.69632C19.0709 2.5129 18.9236 2.43681 18.7294 2.52071ZM19.9611 17.2392C17.6811 14.7442 15.4039 12.251 13.1288 9.75999M19.9611 17.2392L13.1288 9.75999M13.1288 9.75999C12.4708 9.03952 11.8129 8.31922 11.1552 7.59913M13.1288 9.75999L11.1552 7.59913M11.1552 7.59913C11.0895 7.52712 11.0939 7.49134 11.0977 7.47554M11.1552 7.59913L11.0977 7.47554M11.0977 7.47554C11.1051 7.44491 11.1359 7.39664 11.2196 7.32661L11.0977 7.47554Z" fill="#02558B" stroke="url(#paint2_linear_2013_314)" stroke-width="0.3"/>
<path d="M38.4516 15.0503L38.4509 15.0499C38.4367 15.0426 38.4313 15.0359 38.4286 15.0313C38.4252 15.0257 38.4212 15.0157 38.4198 14.9979C38.4167 14.9589 38.428 14.9033 38.4528 14.8401L38.453 14.8396C40.013 10.8181 41.574 6.79666 43.135 2.77616C43.1705 2.68489 43.206 2.65384 43.2278 2.64355C43.246 2.63493 43.2855 2.62626 43.3698 2.66239C46.0681 3.8363 48.5506 5.35961 50.8147 7.23442L50.9104 7.11889L50.8147 7.23443C50.8244 7.24241 50.8337 7.25013 50.8428 7.25762C50.8937 7.29967 50.9359 7.3345 50.9716 7.36855C51.0136 7.40871 51.0345 7.43687 51.0439 7.45755C51.0509 7.47268 51.0525 7.48471 51.0469 7.50393C51.0396 7.52872 51.0181 7.57054 50.9607 7.63327L50.9606 7.63336C48.1176 10.7466 45.2747 13.8598 42.4317 16.974L42.4315 16.9742C42.4104 16.9974 42.3888 17.0228 42.368 17.047L42.3674 17.0478C42.3459 17.0729 42.325 17.0975 42.3033 17.1216C42.2594 17.1704 42.218 17.2113 42.1777 17.2401C42.1375 17.2689 42.1075 17.2791 42.0853 17.2803C42.0668 17.2813 42.0376 17.2772 41.9936 17.2424L41.9933 17.2422C41.1824 16.6035 40.3204 16.0406 39.4092 15.5535L39.4092 15.5535C39.0904 15.3834 38.7708 15.2162 38.4516 15.0503Z" fill="#D3A029" stroke="url(#paint3_linear_2013_314)" stroke-width="0.3"/>
<path d="M9.2961 8.86728L9.40085 8.97465C9.4349 8.94143 9.45897 8.93942 9.48583 8.94514C9.5248 8.95343 9.57815 8.98292 9.64412 9.04006C9.70788 9.09528 9.771 9.16525 9.83067 9.23618C9.85114 9.26052 9.87249 9.28658 9.8934 9.31213C9.92847 9.35497 9.96235 9.39634 9.98891 9.42563L9.98927 9.42602C12.797 12.4992 15.6048 15.5723 18.4126 18.6464C18.4364 18.6726 18.4446 18.6915 18.4476 18.7031C18.4505 18.7141 18.4507 18.7259 18.4465 18.7417C18.4362 18.7796 18.4029 18.8303 18.3388 18.8977L18.3385 18.898C17.4553 19.8313 16.6432 20.9073 15.9027 22.1251L15.9026 22.1252C15.8849 22.1544 15.8699 22.1655 15.861 22.1703C15.8522 22.175 15.84 22.1786 15.8199 22.1779C15.7725 22.1763 15.708 22.1529 15.6192 22.1095C11.7869 20.2051 7.95558 18.3006 4.12428 16.3962L4.10143 16.3848C4.10142 16.3848 4.10142 16.3848 4.10141 16.3848C3.98646 16.3276 3.94872 16.2871 3.9375 16.2619C3.93146 16.2484 3.91963 16.2089 3.9794 16.1011C5.45344 13.4443 7.26028 11.0696 9.40102 8.97448L9.2961 8.86728ZM9.2961 8.86728C9.53379 8.63539 9.83054 8.99826 10.0139 9.22245C10.0465 9.26235 10.0755 9.29787 10.1 9.32485C12.9079 12.3981 15.7157 15.4713 18.5235 18.5455L4.03457 16.5191C3.79749 16.401 3.70969 16.2781 3.84823 16.0283C5.32922 13.359 7.14485 10.9727 9.2961 8.86728Z" fill="#5DBB46" stroke="url(#paint4_linear_2013_314)" stroke-width="0.3"/>
<path d="M53.2391 9.47535L53.2389 9.47516C53.1979 9.43301 53.1469 9.37704 53.0943 9.31919C53.0552 9.27634 53.0153 9.23245 52.9777 9.19238C52.8821 9.0904 52.7941 9.00415 52.7264 8.95726L52.7251 8.95638L52.7251 8.95637C52.6904 8.93183 52.6665 8.93206 52.6403 8.94087C52.6048 8.9528 52.5596 8.98462 52.5085 9.03985C52.5085 9.03992 52.5084 9.03999 52.5083 9.04007L43.7897 18.5869L43.7894 18.5872C43.7378 18.6435 43.7102 18.6934 43.7024 18.7307C43.6967 18.7581 43.6993 18.7838 43.7314 18.8179L43.7317 18.8182C44.7189 19.8682 45.5501 20.9588 46.2235 22.0901M53.2391 9.47535L46.0946 22.1668M53.2391 9.47535C55.1799 11.4618 56.8216 13.6694 58.1653 16.1005M53.2391 9.47535L58.2967 16.0282M46.2235 22.0901L46.0946 22.1668M46.2235 22.0901C46.2235 22.09 46.2235 22.09 46.2235 22.09L46.0946 22.1668M46.2235 22.0901C46.2659 22.1611 46.2987 22.173 46.3183 22.1762C46.3475 22.1809 46.3986 22.1737 46.4864 22.1301L46.4864 22.13C50.3645 20.2022 54.2436 18.2744 58.1217 16.3475M46.0946 22.1668C46.2097 22.36 46.359 22.3609 46.5532 22.2644C50.4313 20.3365 54.3103 18.4087 58.1884 16.4818M58.1217 16.3475C58.1217 16.3475 58.1216 16.3475 58.1216 16.3475L58.1884 16.4818M58.1217 16.3475L58.1884 16.4818M58.1217 16.3475C58.1933 16.3119 58.2065 16.2792 58.2102 16.2602C58.2155 16.2325 58.2098 16.1817 58.1653 16.1005M58.1884 16.4818C58.3904 16.3813 58.4011 16.2184 58.2967 16.0282M58.2967 16.0282L58.1654 16.1007C58.1654 16.1006 58.1653 16.1005 58.1653 16.1005M58.2967 16.0282L58.1652 16.1003C58.1652 16.1004 58.1653 16.1004 58.1653 16.1005" fill="#279B48" stroke="url(#paint5_linear_2013_314)" stroke-width="0.3"/>
<path d="M0.625855 27.0899L0.625683 27.0899C0.494474 27.0778 0.452664 27.0512 0.438777 27.0355C0.428912 27.0244 0.407162 26.9885 0.423969 26.8643L0.423976 26.8642C0.823999 23.899 1.63757 21.0534 2.86483 18.3261L2.72804 18.2645L2.8647 18.3264C2.89651 18.2561 2.93368 18.2165 2.96372 18.2C2.98554 18.188 3.01508 18.1808 3.0671 18.2066L3.06715 18.2067C6.9589 20.1404 10.8497 22.074 14.7405 24.0077L14.7407 24.0078C14.8157 24.045 14.8481 24.08 14.8605 24.1054C14.87 24.1248 14.878 24.1587 14.8502 24.2255L14.8501 24.2257C14.3287 25.483 13.9548 26.7827 13.7295 28.1257L13.7294 28.1262C13.7153 28.2121 13.6906 28.247 13.6728 28.2618C13.657 28.275 13.6235 28.2917 13.5431 28.285C10.1728 27.9842 6.80384 27.6685 3.43472 27.3528C2.49845 27.2651 1.56217 27.1774 0.625855 27.0899Z" fill="#007DBC" stroke="url(#paint6_linear_2013_314)" stroke-width="0.3"/>
<path d="M47.1678 24.3063L47.3066 24.2493C47.2818 24.189 47.2782 24.1401 47.2854 24.1076C47.2914 24.0808 47.3058 24.0569 47.3442 24.0375C49.2962 23.0679 51.2479 22.098 53.1996 21.1281L53.2059 21.125L53.2129 21.1215C55.1645 20.1517 57.116 19.1819 59.0679 18.2123L59.0682 18.2121C59.1364 18.178 59.1669 18.1892 59.1842 18.1992C59.2131 18.2156 59.2508 18.2578 59.2887 18.3423L59.2887 18.3424C60.514 21.0677 61.3256 23.9123 61.7237 26.8755C61.7373 26.9793 61.7182 27.0191 61.7054 27.0348C61.6918 27.0513 61.655 27.0781 61.5503 27.0878L61.5503 27.0878C57.2118 27.4897 52.8792 27.8907 48.5534 28.2897C48.5315 28.2916 48.5149 28.2873 48.4969 28.2752L48.4961 28.2747C48.4511 28.2451 48.4324 28.2163 48.4272 28.1836L48.4271 28.1825C48.2037 26.8278 47.8308 25.5172 47.3064 24.249L47.1678 24.3063ZM47.1678 24.3063C47.6878 25.5639 48.0576 26.8635 48.279 28.2069L59.0011 18.078C57.0466 19.0489 55.0924 20.02 53.1381 20.9912C51.1845 21.962 49.2309 22.9328 47.2771 23.9034C47.12 23.9824 47.1024 24.1473 47.1678 24.3063ZM61.5641 27.2371C57.2255 27.6391 52.8928 28.0401 48.5669 28.4391C48.5112 28.444 48.4605 28.4313 48.4137 28.4001L61.5641 27.2371Z" fill="#C31F33" stroke="url(#paint7_linear_2013_314)" stroke-width="0.3"/>
<path d="M1.29384 38.3262L1.29404 38.3262C5.44913 37.1467 9.60324 35.9662 13.7574 34.7847C13.8258 34.765 13.8514 34.7394 13.8619 34.7219C13.8726 34.7042 13.8835 34.6689 13.8691 34.5977L14.0161 34.568M1.29384 38.3262L0.339654 29.1631C0.339707 29.1631 0.33976 29.1631 0.339812 29.1631C4.45525 29.5453 8.57157 29.9256 12.687 30.3058L13.2335 30.3563C13.2335 30.3563 13.2335 30.3563 13.2335 30.3563C13.2335 30.3563 13.2335 30.3563 13.2335 30.3563C13.3669 30.3687 13.4286 30.3825 13.4614 30.4046C13.4733 30.4127 13.5026 30.433 13.5003 30.5481C13.4708 31.8942 13.5938 33.2439 13.8691 34.5979L14.0161 34.568M1.29384 38.3262C1.10757 38.3794 1.07117 38.3475 1.06344 38.3404C1.05348 38.3313 1.03833 38.3108 1.02053 38.2625C1.00273 38.2142 0.98716 38.1523 0.967913 38.0696L0.967894 38.0696M1.29384 38.3262L0.967894 38.0696M14.0161 34.568C13.743 33.2246 13.621 31.886 13.6503 30.5514L13.7986 34.929C13.982 34.8763 14.0542 34.7563 14.0161 34.568ZM0.967894 38.0696C0.301804 35.2158 0.0425672 32.3245 0.190157 29.396M0.967894 38.0696L0.190157 29.396M0.190157 29.396L0.0403474 29.3884L0.190157 29.396Z" fill="#48773E" stroke="url(#paint8_linear_2013_314)" stroke-width="0.3"/>
<path d="M61.2948 38.2353L61.1487 38.2013C61.1197 38.3254 61.0833 38.3441 61.0699 38.3494C61.0408 38.361 60.9803 38.3625 60.8489 38.3252C56.6939 37.1447 52.536 35.9643 48.3742 34.7829C48.3647 34.78 48.3558 34.7761 48.3464 34.7703C48.2937 34.7375 48.2822 34.7139 48.2775 34.6981C48.2705 34.6745 48.2691 34.6346 48.2855 34.5541C48.5511 33.2584 48.6711 31.9488 48.6436 30.6265C48.6417 30.5186 48.6513 30.4562 48.6702 30.4205C48.6803 30.4014 48.6986 30.3755 48.7797 30.368C53.1095 29.969 57.4403 29.568 61.771 29.167C61.8703 29.1578 61.8981 29.1822 61.9085 29.194C61.9272 29.2152 61.9483 29.2649 61.9537 29.3743L61.9537 29.3745C62.1023 32.3036 61.8344 35.2457 61.1486 38.2014L61.2948 38.2353ZM61.2948 38.2353C61.9836 35.2665 62.2528 32.3104 62.1036 29.3669L48.2673 34.8977C48.2878 34.9104 48.3092 34.9202 48.3326 34.927C52.4947 36.1085 56.6528 37.289 60.8079 38.4695C61.0723 38.5446 61.2274 38.5241 61.2948 38.2353Z" fill="#EF402B" stroke="url(#paint9_linear_2013_314)" stroke-width="0.3"/>
<path d="M14.4687 36.8184L14.4679 36.8179C14.4323 36.7956 14.4136 36.7905 14.4005 36.789C14.3858 36.7873 14.3626 36.7884 14.3146 36.8021L14.3145 36.8021C10.1861 37.9747 6.05757 39.1443 1.92914 40.314L1.92795 40.3143L1.92783 40.3144C1.79385 40.3522 1.71705 40.3826 1.67819 40.4194C1.66395 40.4328 1.65749 40.445 1.65463 40.4608L14.4687 36.8184ZM14.4687 36.8184C14.4876 36.8302 14.4996 36.8447 14.5081 36.8677C14.89 37.9355 15.3781 38.9658 15.9733 39.9575C16.0944 40.1596 16.2164 40.3617 16.3395 40.5639C16.3749 40.6226 16.3793 40.6611 16.3761 40.6836C16.3733 40.7033 16.3615 40.7325 16.3141 40.7683L16.314 40.7683M14.4687 36.8184L16.314 40.7683M16.314 40.7683C12.8701 43.3664 9.42527 45.9634 5.98042 48.5595C5.88893 48.6282 5.82621 48.663 5.78105 48.6699C5.76385 48.6725 5.75257 48.6704 5.74186 48.6652C5.72952 48.6592 5.7076 48.6439 5.67949 48.6035L5.6792 48.6031M16.314 40.7683L5.6792 48.6031M5.6792 48.6031C3.95901 46.149 2.62215 43.4725 1.67056 40.573L5.6792 48.6031Z" fill="#CF8D2A" stroke="url(#paint10_linear_2013_314)" stroke-width="0.3"/>
<path d="M60.3678 40.3612C60.4611 40.3877 60.4762 40.4209 60.4816 40.4383C60.4919 40.4716 60.4897 40.5327 60.4546 40.6393C59.5206 43.4598 58.208 46.0917 56.5157 48.5335L56.5156 48.5337C56.444 48.6373 56.4004 48.6635 56.3779 48.6691C56.3641 48.6725 56.324 48.6763 56.2288 48.6045L56.2287 48.6044C52.7575 45.9938 49.2903 43.3782 45.8249 40.7597L45.7345 40.8793L45.8251 40.7598C45.782 40.7271 45.7712 40.6984 45.7689 40.6768C45.7663 40.6513 45.7734 40.6108 45.8088 40.5559C46.5466 39.4177 47.1476 38.2116 47.6139 36.9388C47.6484 36.8448 47.6803 36.8125 47.7006 36.8008C47.7172 36.7913 47.7538 36.7795 47.8437 36.805L47.8438 36.805C50.6268 37.5959 53.4098 38.3859 56.1928 39.1759C57.5845 39.571 58.9762 39.966 60.3678 40.3612ZM60.3678 40.3612L60.4088 40.2169M60.3678 40.3612L60.4088 40.2169M60.4088 40.2169C60.6596 40.2881 60.6713 40.4608 60.5971 40.6862L45.6828 40.4745C46.4145 39.3457 47.0106 38.1495 47.473 36.8871C47.5511 36.6744 47.6652 36.5983 47.8848 36.6607C50.6678 37.4516 53.4509 38.2417 56.234 39.0317C57.6256 39.4267 59.0172 39.8217 60.4088 40.2169Z" fill="#00AED9" stroke="url(#paint11_linear_2013_314)" stroke-width="0.3"/>
<path d="M7.15386 50.5474L7.15389 50.5474C9.10536 52.8942 11.2988 54.9049 13.7642 56.5647L7.15386 50.5474ZM7.15386 50.5474C7.106 50.4899 7.08759 50.4511 7.08125 50.4275C7.07608 50.4083 7.07802 50.3968 7.08332 50.3845C7.09051 50.3679 7.10701 50.3441 7.14255 50.3104C7.17791 50.2769 7.22342 50.2416 7.28092 50.1983L7.28104 50.1982M7.15386 50.5474L7.28104 50.1982M7.28104 50.1982C10.7083 47.6148 14.1356 45.0314 17.5619 42.4471M7.28104 50.1982L17.4719 42.3271M20.7991 45.532L20.7991 45.5319C20.8619 45.4308 20.8838 45.3738 20.8845 45.3365C20.8848 45.3185 20.8821 45.2831 20.8007 45.2244L20.8885 45.1028L20.8009 45.2245C19.735 44.4578 18.754 43.5673 17.858 42.5523M20.7991 45.532L17.4719 42.3271M20.7991 45.532C19.3996 47.7886 17.9999 50.0448 16.6001 52.3008M20.7991 45.532L16.6001 52.3008M17.858 42.5523C17.858 42.5523 17.858 42.5523 17.858 42.5522L17.9704 42.453L17.8582 42.5525C17.8582 42.5525 17.8581 42.5524 17.858 42.5523ZM17.858 42.5523C17.7786 42.4628 17.7296 42.4205 17.6903 42.4057C17.672 42.3988 17.6392 42.3894 17.5619 42.4471M17.5619 42.4471C17.562 42.447 17.5621 42.4469 17.5622 42.4469L17.4719 42.3271M17.5619 42.4471C17.5619 42.4471 17.5618 42.4472 17.5617 42.4472L17.4719 42.3271M16.6001 52.3008C15.736 53.6937 14.8718 55.0866 14.0078 56.4794L16.6001 52.3008ZM13.8888 56.6026C13.8728 56.6081 13.8377 56.6141 13.7644 56.5648L13.8888 56.6026Z" fill="#F99D26" stroke="url(#paint12_linear_2013_314)" stroke-width="0.3"/>
<path d="M44.3864 42.4418L44.3861 42.4421C43.4173 43.5366 42.3876 44.4751 41.2958 45.2588M44.3864 42.4418L41.3547 45.8335L41.4823 45.7546C41.4823 45.7546 41.4823 45.7545 41.4822 45.7545C41.4632 45.7238 41.4428 45.6931 41.4222 45.6621C41.3723 45.5871 41.3215 45.5108 41.2877 45.429C41.2652 45.3744 41.2591 45.3359 41.2616 45.3112C41.2634 45.2942 41.269 45.278 41.2958 45.2588M44.3864 42.4418C44.4128 42.4118 44.4386 42.4037 44.4672 42.4049M44.3864 42.4418L44.4672 42.4049M41.2958 45.2588L41.2084 45.1369L41.2959 45.2587C41.2959 45.2587 41.2958 45.2587 41.2958 45.2588ZM44.4672 42.4049C44.5015 42.4063 44.5483 42.4226 44.5993 42.4607M44.4672 42.4049L44.5993 42.4607M44.5993 42.4607C48.01 45.0305 51.4197 47.6002 54.8295 50.1709C54.8409 50.1795 54.8519 50.1878 54.8627 50.1958C54.9061 50.2284 54.944 50.2568 54.9781 50.2859C55.0204 50.322 55.0458 50.3502 55.0595 50.3733C55.0711 50.3928 55.0728 50.4055 55.0709 50.4187C55.0684 50.4357 55.0571 50.4696 55.0126 50.5237L44.5993 42.4607ZM48.1775 56.5419L48.1769 56.5409L55.0126 50.5237C53.0949 52.858 50.885 54.8757 48.3836 56.5769C48.3512 56.5989 48.3255 56.606 48.3046 56.6068C48.2835 56.6076 48.2561 56.6025 48.22 56.5826C48.2018 56.5723 48.1879 56.5589 48.1775 56.5419Z" fill="#FDB713" stroke="url(#paint13_linear_2013_314)" stroke-width="0.3"/>
<path d="M15.8948 57.8816C15.8021 57.8289 15.7508 57.787 15.7298 57.7517C15.7218 57.7383 15.7196 57.728 15.7202 57.7169C15.7209 57.7042 15.7261 57.6797 15.7503 57.6408L15.7505 57.6405L22.652 46.5155L22.652 46.5155C22.6673 46.4908 22.6808 46.4806 22.6897 46.4757C22.6988 46.4708 22.7111 46.4672 22.7298 46.4673C22.7726 46.4675 22.8328 46.4867 22.9086 46.5264L22.9089 46.5265C24.0793 47.1368 25.3424 47.6217 26.6967 47.9824L26.7353 47.8374C26.9431 47.893 26.9558 48.0667 26.9197 48.2589L15.8948 57.8816Z" fill="#E11484" stroke="url(#paint14_linear_2013_314)" stroke-width="0.3"/>
<path d="M38.0722 61.2113L38.0386 61.0651C37.9405 61.0877 37.8692 61.0901 37.8245 61.0756C37.8056 61.0694 37.7931 61.0608 37.7832 61.0488C37.7727 61.0361 37.759 61.012 37.7504 60.9662C36.9592 56.7096 36.165 52.4531 35.368 48.1975C35.356 48.1322 35.3601 48.0778 35.3738 48.0423C35.3849 48.0133 35.4017 47.9955 35.4362 47.9862L35.4362 47.9862C36.8231 47.611 38.0909 47.1243 39.241 46.5257L39.2415 46.5254C39.322 46.4831 39.3796 46.4663 39.4184 46.4673C39.4349 46.4677 39.4467 46.4714 39.4568 46.4774C39.4673 46.4837 39.483 46.4967 39.5009 46.5254C41.7741 50.1889 44.0463 53.8513 46.3175 57.5147L46.3178 57.5151C46.3716 57.6012 46.4082 57.6726 46.4157 57.7285C46.4189 57.7522 46.4156 57.7658 46.4111 57.775C46.4067 57.7841 46.3946 57.8021 46.3571 57.8234L46.357 57.8234C43.7689 59.3 40.9962 60.3806 38.0384 61.0652L38.0722 61.2113ZM38.0722 61.2113C37.8644 61.2591 37.6517 61.2543 37.603 60.9938M38.0722 61.2113C41.044 60.5235 43.8304 59.4376 46.4314 57.9537L37.603 60.9938M37.603 60.9938C36.8117 56.7371 36.0176 52.4805 35.2205 48.2248C35.1902 48.0599 35.2273 47.8873 35.3971 47.8414L37.603 60.9938Z" fill="#8F1838" stroke="url(#paint15_linear_2013_314)" stroke-width="0.3"/>
<path d="M26.5163 61.513L26.5157 61.5126C26.4579 61.4724 26.4496 61.4494 26.4463 61.4366C26.4403 61.4129 26.441 61.3742 26.4584 61.282L26.4584 61.2819L26.4629 61.258C27.2575 57.0161 28.0521 52.7743 28.8467 48.5334L28.8467 48.5333C28.855 48.4888 28.8674 48.4656 28.8766 48.4536C28.8849 48.4428 28.895 48.4351 28.9111 48.4289C28.9521 48.4132 29.0192 48.4113 29.1317 48.4237L29.1318 48.4237C30.4166 48.5635 31.7572 48.5584 33.1533 48.4091L33.1534 48.4091C33.1906 48.4051 33.2114 48.4101 33.2224 48.4147C33.2329 48.419 33.2429 48.4261 33.2537 48.4404C33.28 48.4751 33.301 48.5368 33.3198 48.6352C34.1084 52.8488 34.8979 57.0635 35.6875 61.2781L35.6923 61.3037C35.6923 61.3038 35.6924 61.3039 35.6924 61.304C35.7098 61.3995 35.6976 61.4483 35.6838 61.4712C35.6737 61.4881 35.6477 61.516 35.5614 61.5281L35.5611 61.5282C32.541 61.9594 29.5329 61.9574 26.5374 61.5214L26.5374 61.5214L26.5344 61.521C26.5302 61.5205 26.5248 61.5191 26.5163 61.513ZM29.1481 48.2746C30.4213 48.4131 31.751 48.4082 33.1374 48.2599L28.6993 48.5058C28.7451 48.2599 28.9256 48.2502 29.1481 48.2746Z" fill="#F36D25" stroke="url(#paint16_linear_2013_314)" stroke-width="0.3"/>
<defs>
<linearGradient id="paint0_linear_2013_314" x1="25.4806" y1="0" x2="25.4806" y2="14.3937" gradientUnits="userSpaceOnUse">
<stop stop-color="#B6B6B6"/>
</linearGradient>
<linearGradient id="paint1_linear_2013_314" x1="36.665" y1="0.0043335" x2="36.665" y2="14.3895" gradientUnits="userSpaceOnUse">
<stop stop-color="#B6B6B6"/>
</linearGradient>
<linearGradient id="paint2_linear_2013_314" x1="17.4111" y1="2.48669" x2="17.4111" y2="17.4309" gradientUnits="userSpaceOnUse">
<stop stop-color="#B6B6B6"/>
</linearGradient>
<linearGradient id="paint3_linear_2013_314" x1="44.7348" y1="2.48593" x2="44.7348" y2="17.4304" gradientUnits="userSpaceOnUse">
<stop stop-color="#B6B6B6"/>
</linearGradient>
<linearGradient id="paint4_linear_2013_314" x1="11.191" y1="8.79272" x2="11.191" y2="22.328" gradientUnits="userSpaceOnUse">
<stop stop-color="#B6B6B6"/>
</linearGradient>
<linearGradient id="paint5_linear_2013_314" x1="50.956" y1="8.78546" x2="50.956" y2="22.3274" gradientUnits="userSpaceOnUse">
<stop stop-color="#B6B6B6"/>
</linearGradient>
<linearGradient id="paint6_linear_2013_314" x1="7.6436" y1="18.0391" x2="7.6436" y2="28.4365" gradientUnits="userSpaceOnUse">
<stop stop-color="#B6B6B6"/>
</linearGradient>
<linearGradient id="paint7_linear_2013_314" x1="54.5052" y1="18.0391" x2="54.5052" y2="28.4401" gradientUnits="userSpaceOnUse">
<stop stop-color="#B6B6B6"/>
</linearGradient>
<linearGradient id="paint8_linear_2013_314" x1="7.01299" y1="29.0121" x2="7.01299" y2="38.5063" gradientUnits="userSpaceOnUse">
<stop stop-color="#B6B6B6"/>
</linearGradient>
<linearGradient id="paint9_linear_2013_314" x1="55.133" y1="29.015" x2="55.133" y2="38.5066" gradientUnits="userSpaceOnUse">
<stop stop-color="#B6B6B6"/>
</linearGradient>
<linearGradient id="paint10_linear_2013_314" x1="9.01496" y1="36.6384" x2="9.01496" y2="48.821" gradientUnits="userSpaceOnUse">
<stop stop-color="#B6B6B6"/>
</linearGradient>
<linearGradient id="paint11_linear_2013_314" x1="53.1277" y1="36.6396" x2="53.1277" y2="48.8207" gradientUnits="userSpaceOnUse">
<stop stop-color="#B6B6B6"/>
</linearGradient>
<linearGradient id="paint12_linear_2013_314" x1="13.9814" y1="42.2505" x2="13.9814" y2="56.7563" gradientUnits="userSpaceOnUse">
<stop stop-color="#B6B6B6"/>
</linearGradient>
<linearGradient id="paint13_linear_2013_314" x1="48.1663" y1="42.2548" x2="48.1663" y2="56.7569" gradientUnits="userSpaceOnUse">
<stop stop-color="#B6B6B6"/>
</linearGradient>
<linearGradient id="paint14_linear_2013_314" x1="21.2527" y1="46.3173" x2="21.2527" y2="61.2358" gradientUnits="userSpaceOnUse">
<stop stop-color="#B6B6B6"/>
</linearGradient>
<linearGradient id="paint15_linear_2013_314" x1="40.889" y1="46.3173" x2="40.889" y2="61.2347" gradientUnits="userSpaceOnUse">
<stop stop-color="#B6B6B6"/>
</linearGradient>
<linearGradient id="paint16_linear_2013_314" x1="31.072" y1="48.2576" x2="31.072" y2="62" gradientUnits="userSpaceOnUse">
<stop stop-color="#B6B6B6"/>
</linearGradient>
</defs>
</svg>
